<svg version="1.1" viewBox="0.0 0.0 960.0 720.0" fill="none" stroke="none" stroke-linecap="square" stroke-miterlimit="10" 
  xmlns:xlink="http://www.w3.org/1999/xlink" 
  xmlns="http://www.w3.org/2000/svg">
  <clipPath id="p.0">
    <path d="m0 0l960.0 0l0 720.0l-960.0 0l0 -720.0z" clip-rule="nonzero"/>
  </clipPath>
  <g clip-path="url(#p.0)">
    <path fill="#000000" fill-opacity="0.0" d="m0 0l960.0 0l0 720.0l-960.0 0z" fill-rule="evenodd"/>
    <path fill="#000000" fill-opacity="0.0" d="m31.22943 153.93633l897.5433 0l0 412.12598l-897.5433 0z" fill-rule="evenodd"/>
    <path fill="#000000" d="m209.88788 255.57695l0 26.95314l-16.796875 0l0 -26.95314l16.796875 0zm0 52.73439l0 137.625l-16.796875 0l0 -137.625l16.796875 0z" fill-rule="nonzero"/>
    <path fill="#000000" d="m300.95352 304.4051q14.578125 0 26.546875 7.8125q11.984375 7.8125 17.328125 19.921875l0.515625 0l0 -23.828125l16.796875 0l0 127.859375q0 31.765625 -14.84375 48.234375q-14.84375 16.484375 -46.09375 16.484375q-23.421875 0 -39.515625 -10.875q-16.078125 -10.875 -17.640625 -30.796875l16.796875 0q2.09375 13.015625 12.703125 20.234375q10.609375 7.234375 27.53125 7.234375q22.390625 0 33.328125 -12.765625q10.9375 -12.75 10.9375 -37.875l0 -19.921875l-0.515625 0q-6.25 13.40625 -17.90625 20.828125q-11.65625 7.421875 -25.96875 7.421875q-29.421875 0 -45.703125 -18.546875q-16.28125 -18.5625 -16.28125 -52.015625q0 -30.21875 16.859375 -49.8125q16.875 -19.59375 45.125 -19.59375zm-45.1875 71.09375q0 24.34375 12.296875 39.515625q12.3125 15.171875 33.015625 15.171875q19.921875 0 32.09375 -15.75q12.171875 -15.765625 12.171875 -38.9375q0 -24.484375 -11.71875 -40.75q-11.71875 -16.28125 -32.8125 -16.28125q-20.6875 0 -32.875 15.828125q-12.171875 15.8125 -12.171875 41.203125z" fill-rule="nonzero"/>
    <path fill="#000000" d="m455.94238 304.4051q24.21875 0 38.609375 12.5q14.390625 12.5 17.125 34.640625l-16.796875 0q-3.640625 -16.40625 -13.40625 -24.734375q-9.765625 -8.34375 -25.53125 -8.34375q-21.609375 0 -34.890625 17.0q-13.28125 16.984375 -13.28125 41.71875q0 24.484375 13.28125 41.546875q13.28125 17.046875 34.890625 17.046875q15.109375 0 26.5625 -10.671875q11.46875 -10.6875 13.546875 -28.515625l16.796875 0q-3.90625 25.640625 -18.890625 39.515625q-14.96875 13.859375 -38.015625 13.859375q-29.15625 0 -47.0625 -20.5q-17.90625 -20.515625 -17.90625 -52.28125q0 -31.890625 17.84375 -52.328125q17.84375 -20.453125 47.125 -20.453125z" fill-rule="nonzero"/>
    <path fill="#434343" d="m557.05145 255.57695l0 190.35939l-16.796875 0l0 -190.35939l16.796875 0z" fill-rule="nonzero"/>
    <path fill="#434343" d="m610.1015 255.57695l0 26.95314l-16.796875 0l0 -26.95314l16.796875 0zm0 52.73439l0 137.625l-16.796875 0l0 -137.625l16.796875 0z" fill-rule="nonzero"/>
    <path fill="#434343" d="m662.8859 255.57695l0 78.906265l0.515625 0q4.828125 -13.9375 18.109375 -22.0q13.28125 -8.078125 29.8125 -8.078125q28.765625 0 45.234375 20.3125q16.484375 20.3125 16.484375 52.46875q0 32.421875 -16.671875 52.609375q-16.671875 20.171875 -45.1875 20.171875q-16.390625 0 -29.75 -7.8125q-13.34375 -7.8125 -19.328125 -22.390625l-0.515625 0l0 26.171875l-15.5 0l0 -190.35939l16.796875 0zm0 121.60939q0 26.046875 12.5625 42.328125q12.5625 16.265625 35.734375 16.265625q21.09375 0 33.078125 -16.734375q11.984375 -16.734375 11.984375 -41.859375q0 -25.25 -11.921875 -41.984375q-11.90625 -16.734375 -33.390625 -16.734375q-22.78125 0 -35.421875 16.21875q-12.625 16.203125 -12.625 42.5z" fill-rule="nonzero"/>
  </g>
</svg>